<svg xmlns="http://www.w3.org/2000/svg" style="display:none">
  <!-- Heroicons v2 MIT License -->

  <symbol id="icon-shield-check" viewBox="0 0 24 24" fill="none" stroke="currentColor" stroke-width="1.5">
    <path stroke-linecap="round" stroke-linejoin="round" d="M9 12.75L11.25 15 15 9.75m-3-7.036A11.959 11.959 0 013.598 6 11.99 11.99 0 003 9.749c0 5.592 3.824 10.29 9 11.623 5.176-1.332 9-6.03 9-11.622 0-1.31-.21-2.571-.598-3.751h-.152c-3.196 0-6.1-1.248-8.25-3.285z" />
  </symbol>

  <symbol id="icon-shield-exclamation" viewBox="0 0 24 24" fill="none" stroke="currentColor" stroke-width="1.5">
    <path stroke-linecap="round" stroke-linejoin="round" d="M12 9v3.75m0-10.036A11.959 11.959 0 013.598 6 11.99 11.99 0 003 9.75c0 5.592 3.824 10.29 9 11.622 5.176-1.332 9-6.03 9-11.622 0-1.31-.21-2.57-.598-3.75h-.152c-3.196 0-6.1-1.249-8.25-3.286zm0 13.036h.008v.008H12v-.008z" />
  </symbol>

  <symbol id="icon-code-bracket" viewBox="0 0 24 24" fill="none" stroke="currentColor" stroke-width="1.5">
    <path stroke-linecap="round" stroke-linejoin="round" d="M17.25 6.75L22.5 12l-5.25 5.25m-10.5 0L1.5 12l5.25-5.25m7.5-3l-4.5 16.5" />
  </symbol>

  <symbol id="icon-cloud" viewBox="0 0 24 24" fill="none" stroke="currentColor" stroke-width="1.5">
    <path stroke-linecap="round" stroke-linejoin="round" d="M2.25 15a4.5 4.5 0 004.5 4.5H18a3.75 3.75 0 001.332-7.257 3 3 0 00-3.758-3.848 5.25 5.25 0 00-10.233 2.33A4.502 4.502 0 002.25 15z" />
  </symbol>

  <symbol id="icon-clipboard-document-check" viewBox="0 0 24 24" fill="none" stroke="currentColor" stroke-width="1.5">
    <path stroke-linecap="round" stroke-linejoin="round" d="M11.35 3.836c-.065.21-.1.433-.1.664 0 .414.336.75.75.75h4.5a.75.75 0 00.75-.75 2.25 2.25 0 00-.1-.664m-5.8 0A2.251 2.251 0 0113.5 2.25H15c1.012 0 1.867.668 2.15 1.586m-5.8 0c-.376.023-.75.05-1.124.08C9.095 4.01 8.25 4.973 8.25 6.108V8.25m8.9-4.414c.376.023.75.05 1.124.08 1.131.094 1.976 1.057 1.976 2.192V16.5A2.25 2.25 0 0118 18.75h-2.25m-7.5-10.5H4.875c-.621 0-1.125.504-1.125 1.125v11.25c0 .621.504 1.125 1.125 1.125h9.75c.621 0 1.125-.504 1.125-1.125V18.75m-7.5-10.5h6.375c.621 0 1.125.504 1.125 1.125v9.375m-8.25-3l1.5 1.5 3-3.75" />
  </symbol>

  <symbol id="icon-device-phone-mobile" viewBox="0 0 24 24" fill="none" stroke="currentColor" stroke-width="1.5">
    <path stroke-linecap="round" stroke-linejoin="round" d="M10.5 1.5H8.25A2.25 2.25 0 006 3.75v16.5a2.25 2.25 0 002.25 2.25h7.5A2.25 2.25 0 0018 20.25V3.75a2.25 2.25 0 00-2.25-2.25H13.5m-3 0V3h3V1.5m-3 0h3m-3 18.75h3" />
  </symbol>

  <symbol id="icon-document-check" viewBox="0 0 24 24" fill="none" stroke="currentColor" stroke-width="1.5">
    <path stroke-linecap="round" stroke-linejoin="round" d="M10.125 2.25h-4.5c-.621 0-1.125.504-1.125 1.125v17.25c0 .621.504 1.125 1.125 1.125h12.75c.621 0 1.125-.504 1.125-1.125v-9M10.125 2.25h.375a9 9 0 019 9v.375M10.125 2.25A3.375 3.375 0 0113.5 5.625v1.5c0 .621.504 1.125 1.125 1.125h1.5a3.375 3.375 0 013.375 3.375M9 15l2.25 2.25L15 12" />
  </symbol>

  <symbol id="icon-wrench-screwdriver" viewBox="0 0 24 24" fill="none" stroke="currentColor" stroke-width="1.5">
    <path stroke-linecap="round" stroke-linejoin="round" d="M11.42 15.17L17.25 21A2.652 2.652 0 0021 17.25l-5.877-5.877M11.42 15.17l2.496-3.03c.317-.384.74-.626 1.208-.766M11.42 15.17l-4.655 5.653a2.548 2.548 0 11-3.586-3.586l6.837-5.63m5.108-.233c.55-.164 1.163-.188 1.743-.14a4.5 4.5 0 004.486-6.336l-3.276 3.277a3.004 3.004 0 01-2.25-2.25l3.276-3.276a4.5 4.5 0 00-6.336 4.486c.091 1.076-.071 2.264-.904 2.95l-.102.085m-1.745 1.437L5.909 7.5H4.5L2.25 3.75l1.5-1.5L7.5 4.5v1.409l4.26 4.26m-1.745 1.437l1.745-1.437m6.615 8.206L15.75 15.75M4.867 19.125h.008v.008h-.008v-.008z" />
  </symbol>
</svg>
